<svg height="24" width="24" viewBox="0 0 16 16" xmlns="http://www.w3.org/2000/svg" xmlns:xlink="http://www.w3.org/1999/xlink"><linearGradient id="a" gradientUnits="userSpaceOnUse" x2="0" y2="16"><stop offset=".188" stop-color="#ff4545"/><stop offset=".188" stop-color="#ffe345"/><stop offset=".313" stop-color="#ffe345"/><stop offset=".313" stop-color="#80ff45"/><stop offset=".438" stop-color="#80ff45"/><stop offset=".438" stop-color="#45ffa2"/><stop offset=".563" stop-color="#45ffa2"/><stop offset=".563" stop-color="#45d7ff"/><stop offset=".688" stop-color="#45d7ff"/><stop offset=".688" stop-color="#8045ff"/><stop offset=".813" stop-color="#8045ff"/><stop offset=".813" stop-color="#ff4596"/></linearGradient><path d="m6.3183594 1.5351562c-.8810485-.0023373-1.7867274.1555583-2.6621094.5195313 2.1021833-.1011722 2.68975 1.3723125 1.84375 2.4453125-1 1.208-1.8647031 2.349-2.3457031 3.5-.24.57-.4042969 1.148-.4042969 1.75s.1262656 1.2.3222656 1.75c.723 2.035 2.6457344 3.5 4.9277344 3.5s4.148108-1.642139 4.927734-3.5c.602017-1.434616.527258-2.9192.220704-4.3320312-.300273-1.383882-.966862-2.7036683-1.993487-3.6238543-1.2999752-1.1651952-2.898285-2.0038162-4.8365916-2.0089583zm2.15625 4.1367188c.1974971.0055.3948388.02611.5917968.060547.7878331.1377478 1.5572988.510424 2.2011718 1.1542969 1.287747 1.2877456 1.492668 3.0788862.898438 4.5136722-.59423 1.434785-2.004838 2.55664-3.8261722 2.55664-.3043551.000403-.5511833-.246426-.5507813-.550781v-1.197266c.000677-.303592.2471892-.54923.5507813-.548828.8448199 0 1.434708-.49057 1.7031252-1.138672.268417-.6481006.198843-1.4124848-.3984378-2.0097653-.597281-.5972807-1.3616646-.6688086-2.0097656-.4003907-.481319.1993434-.7996881.6274761-.9707031 1.1542969h.4785156c.451913.00121.7096322.5166502.4394531.878906l-1.7949218 2.394531c-.220053.292314-.6588533.292314-.8789063 0l-1.796875-2.394531c-.270714-.3629761-.0114047-.8792996.4414063-.878906h.8183594c.2198809-1.5217254 1.1159546-2.7498994 2.3847656-3.2753906.5380447-.2228367 1.1262587-.3348569 1.71875-.3183594z" fill="url(#a)"/></svg>
