<svg height="64" width="64" viewBox="0 0 1024 1024" xmlns="http://www.w3.org/2000/svg" xmlns:xlink="http://www.w3.org/1999/xlink"><linearGradient id="a" gradientUnits="userSpaceOnUse" x1="548.67297" x2="548.67297" y1="-515.1358" y2="1110.9598"><stop offset="0" stop-color="#fff"/><stop offset="1" stop-color="#fff" stop-opacity="0"/></linearGradient><g fill="url(#a)" fill-opacity="1"><path d="m333.04148 390.83223c60.95648-49.64478 68.88761-106.2825 36.83418-141.00059 52.95459 9.63902 98.77795 89.19743 48.01651 153.00628-26.65727 28.88001-68.13281 68.8029-93.60356 105.41581-9.2708-12.44172-10.12463-91.91256 8.75287-117.4215z" transform="matrix(1.26736684 0 0 1.14467704 -169.115574 -74.143759)"/><path d="m605.46763 539.31749c99.49507-95.417 109.65157-174.00724 89.51164-257.37948 90.53959 56.34382 120.32347 206.65548 27.21848 302.30568-32.45156-39.30764-89.42225-46.80136-116.73012-44.9262z" transform="matrix(1.26736684 0 0 1.14467704 -169.115574 -74.143759)"/><path d="m765.39662 735.60971c1.02709-90.00477-16.0696-105.16862-28.65159-129.51094 34.98134-30.43943 78.21953-75.63777 74.07442-153.79971 36.26521 37.79516 66.66305 121.65638 46.94164 191.96024-14.85854 28.34925-56.52353 68.79815-92.36447 91.35041z" transform="matrix(1.26736684 0 0 1.14467704 -169.115574 -74.143759)"/><path d="m286.7715 396.80053c-5.93266 67.16211-.0142 105.76452 13.27886 144.12011-13.08692 19.33786-69.11732 109.77679-37.44325 220.32126-44.04902-24.00905-100.7815-195.24013 24.16439-364.44137z" transform="matrix(1.26736684 0 0 1.14467704 -169.115574 -74.143759)"/><path d="m726.13159 846.0296c17.73585-25.58971 32.54955-56.27784 36.25546-69.90486 25.02581-13.2945 46.48859-30.41422 75.77995-60.35056 6.3761 19.04233-68.60478 120.85509-112.03541 130.25542z" transform="matrix(1.26736684 0 0 1.14467704 -169.115574 -74.143759)"/><path d="m287.62386 770.66215c-29.78142-126.68372 26.21112-227.13854 122.27548-324.391 105.33248-111.10231 158.66521-199.01977 14.74873-345.20912 261.96689 21.80119 302.85341 302.60789 107.16624 460.89824-51.66636 39.08202-116.35918 131.07193-52.20213 201.69934 66.22057 56.08087 152.88124 4.62465 143.98406-72.6156-10.2837-55.25992-76.49108-78.64126-126.16991-31.17468 9.95446-71.61481 101.52024-120.17733 179.73907-76.61421 92.88799 60.20488 91.88394 225.81649-17.84496 305.21134-114.08509 65.67002-317.97459 43.35612-371.69658-117.80431z" transform="matrix(1.26736684 0 0 1.14467704 -169.115574 -74.143759)"/></g></svg>
